<?xml version="1.0" encoding="utf-8"?>
<!-- Generator: Adobe Illustrator 17.0.0, SVG Export Plug-In . SVG Version: 6.00 Build 0)  -->
<!DOCTYPE svg PUBLIC "-//W3C//DTD SVG 1.1//EN" "http://www.w3.org/Graphics/SVG/1.1/DTD/svg11.dtd">
<svg version="1.1" id="Layer_1" xmlns="http://www.w3.org/2000/svg" xmlns:xlink="http://www.w3.org/1999/xlink" x="0px" y="0px"
	 width="898px" height="898px" viewBox="0 0 898 898" enable-background="new 0 0 898 898" xml:space="preserve">
<g>
	<g>
		<path fill-rule="evenodd" clip-rule="evenodd" d="M449,0C201.024,0,0,201.024,0,449s201.024,449,449,449s449-201.024,449-449
			S696.976,0,449,0z M411.96,184.587c80.759-5.587,197.908,7.501,207.164,97.541c4.044,39.33-1.24,74.55-116.15,143.56
			c-28.904,17.347-54.344,30.545-71.638,41.13c-13.422,7.97-28.605,18.121-39.339,28.619c-0.135,0.13-0.28,0.255-0.414,0.382
			c0.007,0,0.023,0,0.03-0.01c-1.171,1.163-2.308,2.326-3.363,3.495c-17.508,19.375-13.338,48.471,24.99,59.905
			c4.988,1.986,13.723,3.552,24.402,4.333c3.235,0.252,6.638,0.406,10.164,0.477c1.038,0.021,2.079,0.046,3.136,0.055
			c0.21,0,0.412,0.011,0.637,0.011v-0.011c0.538,0.011,1.072,0.011,1.618,0.011c24.578,0,44.493-3.892,44.493-8.708
			c0-4.808-19.915-8.702-44.493-8.702c-7.299,0-14.187,0.351-20.268,0.961c-12.897-1.749-28.553-6.954-33.322-21.582
			c-4.04-12.391,10.509-25.353,27.664-35.849c8.476-0.753,17.189-1.159,26.106-1.159c80.142,0,145.107,31.889,145.107,71.217
			c0,39.34-64.965,71.231-145.107,71.231c-68.624,0-121.885-26.43-141.192-54.816c-28.421-45.096-9.452-92.89,34.783-129.54
			c73.552-60.927,184.502-109.311,177.661-147.815c-5.673-31.874-47.476-31.874-47.476-31.874s-43.228-1.413-72.979,43.916
			c-29.764,45.321-60.936,36.116-60.936,36.116c31.884-9.919,43.217-68.703,43.217-68.703s-56.685-30.451-70.856-24.788
			c-14.17,5.674,0,38.253,0,38.253C266.711,262.494,266,231.336,266,231.336S322.19,190.814,411.96,184.587z M453.197,714
			c-98.394,0-178.164-37.108-178.164-94.076c0-16.086,3.399-30.943,14.723-44.511c16.243,40.484,69.464,74.779,162.976,74.779
			c112.911,0,157.198-41.533,157.992-78.467c13.158,14.384,20.636,30.779,20.636,48.198C631.36,676.892,551.591,714,453.197,714z
			 M633.427,664.944c8.931-12.319,13.895-25.875,13.895-40.122c0-2.466-0.172-4.923-0.461-7.343
			C695.768,623.688,734,603.528,734,603.528C703.036,654.266,651.283,663.325,633.427,664.944z M348.994,229.994
			c4.723,0,8.544-3.817,8.544-8.534c0-4.711-3.821-8.534-8.544-8.534c-4.717,0-8.54,3.823-8.54,8.534
			C340.454,226.177,344.277,229.994,348.994,229.994z"/>
	</g>
</g>
</svg>
