<?xml version="1.0" encoding="utf-8"?>
<!-- Generator: Adobe Illustrator 17.0.0, SVG Export Plug-In . SVG Version: 6.00 Build 0)  -->
<!DOCTYPE svg PUBLIC "-//W3C//DTD SVG 1.1//EN" "http://www.w3.org/Graphics/SVG/1.1/DTD/svg11.dtd">
<svg version="1.1" id="Layer_1" xmlns="http://www.w3.org/2000/svg" xmlns:xlink="http://www.w3.org/1999/xlink" x="0px" y="0px"
	 width="212.591px" height="202.214px" viewBox="0 0 212.591 202.214" enable-background="new 0 0 212.591 202.214"
	 xml:space="preserve">
<g>
	<path fill="#FFFFFF" d="M109.735,119.522c-23.936,0-37.559-8.783-41.716-19.15c-2.898,3.475-3.769,7.279-3.769,11.399
		c0,14.589,20.418,24.092,45.604,24.092s45.604-9.503,45.604-24.092c0-4.461-1.914-8.66-5.282-12.343
		C149.973,108.885,138.637,119.522,109.735,119.522z"/>
	<path fill="#FFFFFF" d="M181.73,107.571c0,0-9.786,5.163-22.305,3.573c0.074,0.62,0.118,1.249,0.118,1.88
		c0,3.648-1.271,7.12-3.557,10.275C160.558,122.885,173.805,120.565,181.73,107.571z"/>
	<path fill="#FFFFFF" d="M74.634,27.853c0,0-3.627-8.343,0-9.796c3.627-1.45,18.137,6.348,18.137,6.348S89.87,39.459,81.708,41.999
		c0,0,7.979,2.357,15.598-9.249c7.615-11.608,18.68-11.247,18.68-11.247s10.7,0,12.152,8.163
		c1.751,9.861-26.648,22.251-45.475,37.854c-11.323,9.386-16.178,21.626-8.903,33.174c4.942,7.27,18.575,14.038,36.14,14.038
		c20.514,0,37.143-8.167,37.143-18.242c0-10.072-16.629-18.238-37.143-18.238c-2.282,0-4.513,0.104-6.682,0.297
		c-4.391,2.688-8.115,6.007-7.081,9.181c1.221,3.746,5.228,5.079,8.529,5.527c1.557-0.156,3.32-0.246,5.188-0.246
		c6.291,0,11.389,0.997,11.389,2.229c0,1.233-5.098,2.23-11.389,2.23c-0.14,0-0.276,0-0.414-0.003v0.003
		c-0.058,0-0.109-0.003-0.163-0.003c-0.271-0.003-0.537-0.009-0.803-0.014c-0.902-0.018-1.773-0.058-2.602-0.122
		c-2.733-0.2-4.969-0.601-6.246-1.11c-9.81-2.928-10.878-10.379-6.396-15.341c0.27-0.299,0.561-0.597,0.861-0.895
		c-0.002,0.003-0.006,0.003-0.008,0.003c0.034-0.032,0.071-0.065,0.106-0.098c2.748-2.688,6.634-5.288,10.069-7.329
		c4.427-2.711,10.938-6.091,18.337-10.533c29.413-17.673,30.766-26.692,29.73-36.765C149.956,2.204,119.97-1.147,99.298,0.284
		C76.321,1.878,61.939,12.255,61.939,12.255S62.121,20.235,74.634,27.853z M83.182,7.541c1.209,0,2.187,0.979,2.187,2.185
		c0,1.208-0.978,2.186-2.187,2.186c-1.208,0-2.186-0.977-2.186-2.186C80.996,8.52,81.975,7.541,83.182,7.541z"/>
	<path fill="#FFFFFF" d="M21.349,172.878l-14.526-24.65H0l18.4,30.638c0.66,1.1,1.497,1.805,2.729,1.805
		c1.145,0,2.025-0.705,2.685-1.805l18.444-30.638h-6.427L21.349,172.878z"/>
	<rect x="57.539" y="161.609" fill="#FFFFFF" width="17.74" height="4.711"/>
	<polygon fill="#FFFFFF" points="53.446,153.818 76.468,153.818 76.468,148.228 47.899,148.228 47.899,180.23 76.512,180.23 
		76.512,174.64 53.446,174.64 	"/>
	<path fill="#FFFFFF" d="M111.203,171.382l-22.582-22.406c-0.836-0.836-1.541-1.144-2.376-1.144c-1.761,0-2.862,1.277-2.862,3.346
		v51.037c5.439-10.263,5.327-29.553,5.327-29.553v-15.85l22.494,22.626c0.793,0.792,1.63,1.189,2.554,1.189
		c1.629,0,2.772-1.232,2.772-3.346v-29.317h-5.326v23.418H111.203z"/>
	<path fill="#FFFFFF" d="M146.557,148.228h-7.792c-8.937,0-15.539,6.251-15.539,15.671c0,9.288,6.602,16.331,15.539,16.331h7.792
		c9.111,0,15.67-7.043,15.67-16.331C162.227,154.61,155.801,148.228,146.557,148.228z M146.557,174.64h-7.792
		c-5.767,0-9.948-4.446-9.948-10.477c0-6.074,4.226-10.344,9.948-10.344h7.792c5.898,0,10.08,4.314,10.08,10.344
		C156.637,170.193,152.455,174.64,146.557,174.64z"/>
	<path fill="#FFFFFF" d="M204.403,150.121c-0.44-1.541-1.321-2.289-2.686-2.289c-1.188,0-2.157,0.661-2.685,1.893l-9.86,22.626
		l-9.86-22.626c-0.528-1.232-1.629-1.893-2.817-1.893c-1.496,0-2.377,0.748-2.772,2.289l-8.233,30.109h5.503l6.118-22.494
		l9.024,20.821c0.572,1.365,1.541,2.113,2.861,2.113c1.365,0,2.245-0.749,2.861-2.113l9.068-20.821l6.119,22.494h5.546
		L204.403,150.121z"/>
</g>
</svg>
